<svg xmlns="http://www.w3.org/2000/svg">

    <symbol id="linkedin" viewBox="0 0 32 32">
        <path d="M26.0808 4H6.05053C4.95649 4 4 4.78771 4 5.86924V25.9432C4 27.0309 4.95649 28 6.05053 28H26.0745C27.1748 28 28 27.0248 28 25.9432V5.86924C28.0063 4.78771 27.1748 4 26.0808 4ZM11.4394 24.0052H8.00104V13.3149H11.4394V24.0052ZM9.83903 11.6895H9.81401C8.71373 11.6895 8.00104 10.8705 8.00104 9.84527C8.00104 8.80125 8.73248 8.00104 9.85777 8.00104C10.9831 8.00104 11.6707 8.795 11.6958 9.84527C11.6958 10.8705 10.9831 11.6895 9.83903 11.6895ZM24.0052 24.0052H20.5668V18.16C20.5668 16.7596 20.0667 15.8031 18.8227 15.8031C17.8724 15.8031 17.3097 16.4469 17.0596 17.0721C16.9659 17.2972 16.9409 17.6036 16.9409 17.9161V24.0052H13.5025V13.3149H16.9409V14.8028C17.4411 14.0901 18.2224 13.0649 20.0417 13.0649C22.2985 13.0649 24.0052 14.5528 24.0052 17.7599V24.0052Z"/>
    </symbol>

    <symbol id="figma" viewBox="0 0 32 32">
        <path d="M23.3249 11.75C24.2223 11.0992 24.8906 10.1812 25.2342 9.12728C25.5777 8.07341 25.5789 6.93783 25.2376 5.88324C24.8962 4.82864 24.2298 3.90915 23.3339 3.2565C22.4379 2.60385 21.3584 2.25152 20.2499 2.25H11.7499C10.6415 2.25152 9.56192 2.60385 8.66597 3.2565C7.77001 3.90915 7.10362 4.82864 6.76227 5.88324C6.42091 6.93783 6.42211 8.07341 6.76569 9.12728C7.10927 10.1812 7.7776 11.0992 8.67492 11.75C8.00124 12.2352 7.45255 12.8736 7.0741 13.6125C6.69565 14.3515 6.49829 15.1698 6.49829 16C6.49829 16.8302 6.69565 17.6485 7.0741 18.3875C7.45255 19.1264 8.00124 19.7648 8.67492 20.25C7.94622 20.7766 7.36496 21.4815 6.98683 22.2972C6.6087 23.1129 6.44639 24.012 6.51543 24.9084C6.58447 25.8048 6.88256 26.6685 7.38114 27.4166C7.87972 28.1648 8.56207 28.7723 9.36282 29.1811C10.1636 29.5899 11.0559 29.7862 11.9543 29.7512C12.8526 29.7162 13.727 29.4511 14.4935 28.9813C15.26 28.5114 15.8931 27.8526 16.3319 27.068C16.7708 26.2833 17.0008 25.3991 16.9999 24.5V20.1125C17.5449 20.5723 18.1777 20.9163 18.86 21.1235C19.5422 21.3306 20.2595 21.3967 20.9681 21.3176C21.6767 21.2385 22.3617 21.0158 22.9814 20.6633C23.6012 20.3107 24.1426 19.8356 24.5727 19.267C25.0028 18.6983 25.3126 18.048 25.4831 17.3557C25.6537 16.6634 25.6814 15.9436 25.5646 15.2403C25.4479 14.5369 25.1891 13.8647 24.804 13.2646C24.419 12.6645 23.9157 12.1492 23.3249 11.75ZM23.4999 7.5C23.4966 8.36094 23.1532 9.18568 22.5444 9.79446C21.9356 10.4032 21.1109 10.7467 20.2499 10.75H16.9999V4.25H20.2499C21.1109 4.25329 21.9356 4.59676 22.5444 5.20554C23.1532 5.81432 23.4966 6.63906 23.4999 7.5ZM8.49992 7.5C8.50322 6.63906 8.84668 5.81432 9.45546 5.20554C10.0642 4.59676 10.889 4.25329 11.7499 4.25H14.9999V10.75H11.7499C10.889 10.7467 10.0642 10.4032 9.45546 9.79446C8.84668 9.18568 8.50322 8.36094 8.49992 7.5ZM8.49992 16C8.50322 15.1391 8.84668 14.3143 9.45546 13.7055C10.0642 13.0968 10.889 12.7533 11.7499 12.75H14.9999V19.25H11.7499C10.889 19.2467 10.0642 18.9032 9.45546 18.2945C8.84668 17.6857 8.50322 16.8609 8.49992 16ZM11.7499 27.75C10.888 27.75 10.0613 27.4076 9.45183 26.7981C8.84233 26.1886 8.49992 25.362 8.49992 24.5C8.49992 23.638 8.84233 22.8114 9.45183 22.2019C10.0613 21.5924 10.888 21.25 11.7499 21.25H14.9999V24.5C14.9966 25.3609 14.6532 26.1857 14.0444 26.7945C13.4356 27.4032 12.6109 27.7467 11.7499 27.75ZM20.2499 19.25C19.388 19.25 18.5613 18.9076 17.9518 18.2981C17.3423 17.6886 16.9999 16.862 16.9999 16C16.9999 15.138 17.3423 14.3114 17.9518 13.7019C18.5613 13.0924 19.388 12.75 20.2499 12.75C21.1119 12.75 21.9385 13.0924 22.548 13.7019C23.1575 14.3114 23.4999 15.138 23.4999 16C23.4999 16.862 23.1575 17.6886 22.548 18.2981C21.9385 18.9076 21.1119 19.25 20.2499 19.25Z"/>
    </symbol>


    <symbol id="dribbble" viewBox="0 0 32 32">
        <path d="M16.0001 29.3334C8.63628 29.3334 2.66675 23.3638 2.66675 16.0001C2.66675 8.63628 8.63628 2.66675 16.0001 2.66675C23.3638 2.66675 29.3334 8.63628 29.3334 16.0001C29.3253 23.3605 23.3605 29.3253 16.0001 29.3334ZM9.49341 24.7267L9.48675 24.7401C12.5308 27.0205 16.5458 27.5429 20.0721 26.1174C19.5666 23.3991 18.8174 20.7319 17.8334 18.1481C15.5733 18.9361 13.507 20.1965 11.7721 21.8454C10.9171 22.655 10.1768 23.5778 9.57208 24.5881L9.56275 24.6027V24.5894L9.53875 24.6361L9.52275 24.6627L9.51341 24.6801L9.49075 24.7281L9.49341 24.7267ZM22.3721 17.3934C21.7157 17.3943 21.0599 17.4389 20.4094 17.5267C21.259 19.9007 21.9275 22.3357 22.4094 24.8107C24.6753 23.1774 26.2154 20.7251 26.7027 17.9747C25.2921 17.5855 23.8354 17.3886 22.3721 17.3894V17.3934ZM5.08941 15.9401V16.0147C5.09184 18.5835 6.00077 21.069 7.65608 23.0334C9.80045 19.7207 12.9724 17.2031 16.6854 15.8667L16.8441 15.8214C16.6081 15.3001 16.3867 14.8347 16.1654 14.4001C12.608 15.3975 8.93328 15.9154 5.23875 15.9401H5.08941ZM21.9547 15.1321C23.6091 15.1382 25.2599 15.289 26.8881 15.5827C26.8033 13.3273 26.0143 11.155 24.6321 9.37075C23.019 11.1747 21.0114 12.5819 18.7654 13.4827L18.8041 13.4667L18.7627 13.4841C19.0014 13.9814 19.2107 14.4467 19.3854 14.8614C19.4267 14.9601 19.4614 15.0454 19.4934 15.1281L19.5481 15.2614C20.3471 15.1727 21.1507 15.1295 21.9547 15.1321ZM11.1694 6.23608C8.26983 7.66724 6.15499 10.3115 5.39608 13.4547C8.50325 13.4067 11.5955 13.0141 14.6161 12.2841H14.6334H14.6534L14.6667 12.2667L14.7387 12.2494H14.7467L14.8001 12.2387H14.8121H14.8214L14.8494 12.2307L14.9027 12.2174L14.9334 12.2041L14.9627 12.1961H14.9761H14.9894C13.2121 9.06675 11.3734 6.51608 11.1694 6.23608ZM16.0001 5.11871C15.2702 5.11691 14.5418 5.18612 13.8254 5.32541C15.2222 7.26085 16.5039 9.27679 17.6641 11.3627C19.7415 10.6228 21.5945 9.36217 23.0454 7.70141C21.0757 6.03555 18.5798 5.12063 16.0001 5.11871Z"/>
    </symbol>

    <symbol id="file" viewBox="0 0 32 32">
        <path d="M12.825 16.262c.307 0 .617.048.93.146.321.092.563.186.726.284l.236.138c.117.072.209.13.274.176.17.137.255.294.255.47 0 .17-.069.35-.206.54-.254.352-.483.529-.685.529-.118 0-.285-.072-.5-.216-.275-.222-.64-.333-1.098-.333-.425 0-.843.146-1.255.44a1.648 1.648 0 0 0-.49.608 1.97 1.97 0 0 0-.196.892c0 .327.066.621.197.882.13.261.296.467.499.617.398.288.814.432 1.245.432.202 0 .392-.027.568-.079.183-.052.313-.104.392-.156l.177-.128c.222-.13.379-.195.47-.195.203 0 .421.183.656.548.144.229.216.412.216.55a.466.466 0 0 1-.137.342 1.427 1.427 0 0 1-.304.245c-.117.072-.232.14-.343.205-.104.066-.323.15-.656.255a3.239 3.239 0 0 1-.97.157c-.308 0-.621-.04-.941-.118a4.375 4.375 0 0 1-.98-.411 4.304 4.304 0 0 1-.902-.706 3.385 3.385 0 0 1-.667-1.067 3.895 3.895 0 0 1-.254-1.421c0-.51.084-.97.254-1.382.17-.418.386-.762.647-1.03.268-.274.572-.503.912-.686.64-.353 1.283-.528 1.93-.528zM21.858 16.271c.17 0 .363.055.578.166.386.19.578.399.579.627 0 .105-.05.262-.148.471l-2.705 5.488a.863.863 0 0 1-.333.353.874.874 0 0 1-.45.128h-.099a.943.943 0 0 1-.47-.128.883.883 0 0 1-.324-.353l-2.704-5.488c-.098-.209-.147-.366-.147-.47 0-.229.193-.438.578-.628.215-.11.38-.166.49-.166.118 0 .206.013.265.04a.457.457 0 0 1 .167.136c.058.079.11.167.156.265.052.091.18.363.383.813l.646 1.421c.235.503.454.98.657 1.431.208.444.326.693.352.745l1.961-4.292c.052-.124.098-.223.137-.295.117-.176.262-.264.431-.264z"/>
        <path d="M17.172 3a3 3 0 0 1 2.121.879l6.828 6.828A3 3 0 0 1 27 12.828V26a3 3 0 0 1-3 3H8a3 3 0 0 1-3-3V6a3 3 0 0 1 3-3h9.172zM8 5a1 1 0 0 0-1 1v20a1 1 0 0 0 1 1h16a1 1 0 0 0 1-1V14a1 1 0 0 0-1-1h-4a3 3 0 0 1-3-3V6a1 1 0 0 0-.898-.995L16 5H8zm11 5a1 1 0 0 0 1 1h3.586L19 6.414V10z"/>
    </symbol>

    <symbol id="email" viewBox="0 0 32 32">
        <path d="M25 7a3 3 0 0 1 3 3v12a3 3 0 0 1-3 3H7a3 3 0 0 1-3-3V10a3 3 0 0 1 3-3h18zm-7.336 11.093a3 3 0 0 1-3.328 0L6 12.535V22a1 1 0 0 0 1 1h18a1 1 0 0 0 1-1v-9.465l-8.336 5.558zM7.605 9c-.989 0-1.377 1.283-.554 1.832l8.394 5.597a1 1 0 0 0 1.11 0l8.394-5.597c.823-.549.435-1.832-.555-1.832H7.605z"/>
    </symbol>

    <symbol id="download" viewBox="0 0 32 32">
        <path d="M22 26a1 1 0 1 1 0 2H10a1 1 0 1 1 0-2h12zM16 4a1 1 0 0 1 1 1v15.586l4.293-4.293a1 1 0 1 1 1.414 1.414l-6 6a1 1 0 0 1-1.414 0l-6-6a1 1 0 1 1 1.414-1.414L15 20.586V5a1 1 0 0 1 1-1z" />
    </symbol>

    <symbol id="write" viewBox="0 0 32 32">
        <path d="M19.0968 6.39954C20.0375 5.27863 21.7101 5.13283 22.8311 6.07336L23.6739 6.7804C24.7946 7.72113 24.9405 9.39278 24.0001 10.5138L12.6671 24.0206C12.3486 24.4 11.9455 24.7 11.4913 24.8976L8.46493 26.213C7.29374 26.7216 6.04366 25.6751 6.33896 24.4327L7.10263 21.2208C7.21787 20.7367 7.44584 20.2856 7.76572 19.9044L19.0968 6.39954ZM21.546 7.60559C21.2711 7.37506 20.8597 7.41091 20.629 7.68567L9.29794 21.1896C9.17803 21.3325 9.09215 21.5022 9.04892 21.6837L8.49325 24.0197L10.6934 23.0636C10.8637 22.9896 11.0155 22.8777 11.1349 22.7355L22.4679 9.22864C22.6984 8.95368 22.6626 8.54334 22.3878 8.31262L21.546 7.60559Z"/>
        <path d="M23.9913 12.2638C24.3463 11.841 24.9775 11.786 25.4005 12.1407C25.8233 12.4957 25.8783 13.1259 25.5235 13.549L19.8673 20.2902C19.5123 20.7132 18.8812 20.7682 18.4581 20.4132C18.0356 20.0582 17.9805 19.4279 18.3351 19.005L23.9913 12.2638Z"/>
    </symbol>


</svg>