<svg width="85" height="20" viewBox="0 0 85 20" fill="none" xmlns="http://www.w3.org/2000/svg">
<path d="M1.17697 18C0.888965 17.84 0.728965 17.664 0.696965 17.472C0.680965 17.28 0.792965 16.944 1.03297 16.464C1.27297 15.984 1.64897 15.24 2.16097 14.232C2.54497 13.512 2.83297 12.952 3.02497 12.552C3.23297 12.136 3.36897 11.84 3.43297 11.664C3.51297 11.488 3.55297 11.376 3.55297 11.328C3.52097 11.184 3.53697 11.072 3.60097 10.992C3.66497 10.896 3.76897 10.816 3.91297 10.752C3.99297 10.672 4.12097 10.528 4.29697 10.32C4.48897 10.112 4.66497 9.86399 4.82497 9.57599C4.96897 9.23999 5.13697 8.89599 5.32897 8.54399C5.52097 8.19199 5.77697 7.75199 6.09697 7.22399C6.41697 6.67999 6.83296 5.97599 7.34496 5.11199C7.66497 4.55199 8.01697 3.98399 8.40097 3.40799C8.78497 2.81599 9.19297 2.23199 9.62497 1.65599C9.80097 1.43199 9.96097 1.25599 10.105 1.12799C10.249 0.983986 10.393 0.919986 10.537 0.935986C10.729 0.935986 10.945 0.999986 11.185 1.12799C11.441 1.25599 11.673 1.42399 11.881 1.63199C12.089 1.83999 12.241 2.06399 12.337 2.30399C12.417 2.43199 12.449 2.70399 12.433 3.11999C12.417 3.53599 12.385 4.03999 12.337 4.63199C12.289 5.22399 12.233 5.85599 12.169 6.52799C12.121 7.18399 12.049 7.95999 11.953 8.85599C11.857 9.75199 11.761 10.688 11.665 11.664C11.585 12.64 11.521 13.584 11.473 14.496C11.425 15.392 11.425 16.176 11.473 16.848C11.489 16.992 11.489 17.128 11.473 17.256C11.457 17.384 11.449 17.488 11.449 17.568C11.353 17.664 11.193 17.704 10.969 17.688C10.761 17.688 10.553 17.64 10.345 17.544C10.153 17.448 10.041 17.328 10.009 17.184C9.96097 17.136 9.92897 17.072 9.91297 16.992C9.91297 16.896 9.92097 16.704 9.93696 16.416C9.95297 16.128 9.96897 15.672 9.98497 15.048L10.105 11.16L9.79297 11.184C9.64897 11.184 9.37697 11.2 8.97697 11.232C8.57697 11.264 8.14497 11.312 7.68096 11.376C7.21697 11.424 6.78497 11.48 6.38497 11.544C6.00097 11.592 5.73697 11.64 5.59297 11.688C5.44897 11.688 5.27297 11.784 5.06497 11.976C4.87297 12.168 4.68897 12.416 4.51297 12.72C4.44897 12.944 4.32897 13.184 4.15297 13.44C3.99297 13.68 3.91297 13.84 3.91297 13.92C3.80097 14 3.70497 14.096 3.62497 14.208C3.56097 14.32 3.52897 14.376 3.52897 14.376C3.52897 14.472 3.44897 14.712 3.28897 15.096C3.14497 15.464 2.96097 15.88 2.73697 16.344C2.51297 16.792 2.28897 17.184 2.06497 17.52L1.56097 18.288L1.17697 18ZM6.14497 10.272C6.14497 10.272 6.22497 10.256 6.38497 10.224C6.56097 10.192 6.76097 10.16 6.98497 10.128C7.22497 10.08 7.44097 10.056 7.63297 10.056C8.30497 9.89599 8.79297 9.79199 9.09697 9.74399C9.40097 9.67999 9.60897 9.64799 9.72097 9.64799C9.84897 9.64799 9.96097 9.67199 10.057 9.71999C10.121 9.79999 10.177 9.84799 10.225 9.86399C10.289 9.87999 10.321 9.88799 10.321 9.88799C10.337 9.85599 10.361 9.67199 10.393 9.33599C10.425 8.99999 10.465 8.58399 10.513 8.08799C10.577 7.59199 10.633 7.07999 10.681 6.55199C10.745 6.00799 10.793 5.51199 10.825 5.06399C10.857 4.59999 10.881 4.24799 10.897 4.00799C10.913 3.70399 10.929 3.43199 10.945 3.19199C10.961 2.93599 10.969 2.80799 10.969 2.80799C10.873 2.80799 10.665 2.98399 10.345 3.33599C10.041 3.68799 9.69697 4.15199 9.31297 4.72799C8.92897 5.30399 8.56896 5.91999 8.23296 6.57599C8.07297 6.87999 7.92097 7.15199 7.77697 7.39199C7.63297 7.63199 7.52097 7.75199 7.44097 7.75199C7.40897 7.78399 7.31297 7.92799 7.15297 8.18399C7.00897 8.42399 6.84897 8.70399 6.67297 9.02399C6.49696 9.32799 6.35296 9.60799 6.24096 9.86399C6.12896 10.104 6.09697 10.24 6.14497 10.272Z" fill="black"/>
<path d="M15.2398 15.96C14.9358 16.072 14.6798 16.128 14.4718 16.128C14.2798 16.112 14.0638 16.016 13.8238 15.84C13.5198 15.552 13.4158 15.264 13.5118 14.976C13.6238 14.672 13.8878 14.376 14.3038 14.088C14.5918 13.912 14.7998 13.816 14.9278 13.8C15.0718 13.784 15.2878 13.84 15.5758 13.968C16.0558 14.272 16.2638 14.608 16.1998 14.976C16.1518 15.344 15.8318 15.672 15.2398 15.96Z" fill="black"/>
<path d="M21.4217 18.408C21.1337 18.328 20.9017 18.256 20.7257 18.192C20.5497 18.144 20.4617 18.12 20.4617 18.12C20.4937 18.04 20.4777 17.968 20.4137 17.904C20.3657 17.84 20.2537 17.8 20.0777 17.784C19.8377 17.64 19.6137 17.456 19.4057 17.232C19.2137 17.024 19.0537 16.816 18.9257 16.608C18.7977 16.4 18.7017 16.224 18.6377 16.08C18.5257 15.84 18.4697 15.696 18.4697 15.648C18.4857 15.584 18.5817 15.512 18.7577 15.432C18.9337 15.304 19.0617 15.264 19.1417 15.312C19.2377 15.36 19.3497 15.52 19.4777 15.792C19.6857 16.16 20.0377 16.44 20.5337 16.632C21.0457 16.824 21.6137 16.912 22.2377 16.896C22.8777 16.864 23.4857 16.72 24.0617 16.464C24.6537 16.224 25.0217 15.976 25.1657 15.72C25.3257 15.448 25.2697 15.104 24.9977 14.688C24.9497 14.56 24.8937 14.456 24.8297 14.376C24.7657 14.296 24.6617 14.192 24.5177 14.064C24.3897 13.936 24.1737 13.728 23.8697 13.44C23.6297 13.328 23.4057 13.224 23.1977 13.128C23.0057 13.032 22.7977 12.928 22.5737 12.816C22.3177 12.688 22.0057 12.504 21.6377 12.264C21.2857 12.008 20.9497 11.728 20.6297 11.424C20.3097 11.12 20.0777 10.84 19.9337 10.584C19.6777 10.344 19.4857 10.016 19.3577 9.59999C19.2297 9.16799 19.1817 8.71199 19.2137 8.23199C19.2457 7.75199 19.3657 7.31999 19.5737 6.93599C19.6697 6.71199 19.8297 6.43999 20.0537 6.11999C20.2937 5.78399 20.5577 5.44799 20.8457 5.11199C21.1337 4.77599 21.4137 4.47199 21.6857 4.19999C21.9577 3.92799 22.1817 3.73599 22.3577 3.62399C22.4857 3.49599 22.6217 3.36799 22.7657 3.23999C22.9097 3.09599 22.9817 3.02399 22.9817 3.02399C22.9977 2.94399 23.0217 2.90399 23.0537 2.90399C23.1017 2.90399 23.1257 2.90399 23.1257 2.90399C23.2057 2.85599 23.3817 2.77599 23.6537 2.66399C23.9257 2.55199 24.2217 2.34399 24.5417 2.03999C25.6137 1.52799 26.4857 1.15199 27.1577 0.911986C27.8297 0.671987 28.3817 0.551987 28.8137 0.551987C29.2137 0.567986 29.5737 0.663986 29.8937 0.839986C30.2297 0.999986 30.5017 1.21599 30.7097 1.48799C30.9337 1.75999 31.0697 2.08799 31.1177 2.47199C31.2297 2.85599 31.1977 3.30399 31.0217 3.81599C30.8457 4.31199 30.5817 4.78399 30.2297 5.23199C29.8937 5.66399 29.5257 5.99199 29.1257 6.21599C28.6777 6.40799 28.3737 6.49599 28.2137 6.47999C28.0697 6.44799 28.0057 6.27999 28.0217 5.97599C28.0217 5.84799 28.0617 5.69599 28.1417 5.51999C28.2377 5.34399 28.4857 5.03199 28.8857 4.58399C29.3977 3.83199 29.7097 3.23199 29.8217 2.78399C29.9337 2.33599 29.8297 2.08799 29.5097 2.03999C29.4137 2.00799 29.2377 2.00799 28.9817 2.03999C28.7417 2.07199 28.4697 2.11999 28.1657 2.18399C27.8777 2.23199 27.6297 2.28799 27.4217 2.35199C27.2137 2.39999 27.1097 2.43999 27.1097 2.47199C27.1097 2.47199 27.1097 2.49599 27.1097 2.54399C27.1097 2.59199 27.0777 2.60799 27.0137 2.59199C26.9817 2.59199 26.8457 2.65599 26.6057 2.78399C26.3657 2.91199 26.0777 3.07999 25.7417 3.28799C25.4057 3.49599 25.0697 3.70399 24.7337 3.91199C24.3977 4.11999 24.1097 4.30399 23.8697 4.46399C23.6457 4.60799 23.5257 4.69599 23.5097 4.72799C23.4777 4.90399 23.2937 5.06399 22.9577 5.20799C22.6377 5.39999 22.3417 5.67999 22.0697 6.04799C21.8137 6.41599 21.5257 6.87199 21.2057 7.41599C20.9337 7.78399 20.7417 8.18399 20.6297 8.61599C20.5177 9.03199 20.5177 9.36799 20.6297 9.62399C20.7097 9.87999 20.9577 10.208 21.3737 10.608C21.7897 11.008 22.3097 11.392 22.9337 11.76C23.4777 12.064 23.9657 12.368 24.3977 12.672C24.8297 12.96 25.1817 13.24 25.4537 13.512C25.7417 13.784 25.9337 14.024 26.0297 14.232C26.2217 14.504 26.3577 14.784 26.4377 15.072C26.5337 15.344 26.5817 15.608 26.5817 15.864C26.5977 16.12 26.5737 16.352 26.5097 16.56C26.3977 16.816 26.1977 17.08 25.9097 17.352C25.6377 17.624 25.4057 17.752 25.2137 17.736C25.0377 17.784 24.9017 17.84 24.8057 17.904C24.7257 17.968 24.6297 18.024 24.5177 18.072C24.4057 18.136 24.1657 18.2 23.7977 18.264C23.4457 18.328 23.0537 18.368 22.6217 18.384C22.1897 18.416 21.7897 18.424 21.4217 18.408Z" fill="black"/>
<path d="M30.7303 15.912C30.6183 15.928 30.4983 15.928 30.3703 15.912C30.2583 15.88 30.1463 15.824 30.0343 15.744C29.9063 15.616 29.8183 15.52 29.7703 15.456C29.7223 15.376 29.7063 15.256 29.7223 15.096C29.7543 14.936 29.8103 14.688 29.8903 14.352C29.9703 14.096 30.0663 13.744 30.1783 13.296C30.2903 12.832 30.4103 12.376 30.5383 11.928C30.5863 11.672 30.6503 11.408 30.7303 11.136C30.8263 10.864 30.9223 10.616 31.0183 10.392C31.1143 10.152 31.1863 9.96799 31.2343 9.83999C31.3623 9.39199 31.4823 8.99999 31.5943 8.66399C31.7223 8.32799 31.8743 7.94399 32.0503 7.51199C32.2263 7.06399 32.4423 6.47199 32.6983 5.73599C33.0503 4.77599 33.3143 4.04799 33.4903 3.55199C33.6823 3.03999 33.8183 2.67199 33.8983 2.44799C33.9943 2.20799 34.0583 2.02399 34.0903 1.89599C34.0903 1.76799 34.1223 1.67199 34.1863 1.60799C34.2663 1.54399 34.3623 1.51199 34.4743 1.51199C34.6983 1.51199 34.8743 1.62399 35.0023 1.84799C35.1463 2.05599 35.2343 2.31199 35.2663 2.61599C35.2983 2.90399 35.2503 3.17599 35.1223 3.43199C34.8663 4.00799 34.5943 4.69599 34.3063 5.49599C34.0183 6.27999 33.7383 7.05599 33.4663 7.82399C33.1943 8.57599 32.9383 9.21599 32.6983 9.74399C32.6983 9.80799 32.6743 9.91999 32.6263 10.08C32.5783 10.24 32.5223 10.384 32.4583 10.512C32.3943 10.64 32.3303 10.76 32.2663 10.872C32.2183 10.984 32.1943 11.04 32.1943 11.04C32.1943 11.104 32.1703 11.224 32.1223 11.4C32.0743 11.576 32.0103 11.792 31.9303 12.048C31.8663 12.24 31.7863 12.488 31.6903 12.792C31.6103 13.096 31.5543 13.352 31.5223 13.56C31.6023 13.416 31.7703 13.2 32.0263 12.912C32.2823 12.624 32.5223 12.376 32.7463 12.168C33.0023 11.944 33.2903 11.696 33.6103 11.424C33.9303 11.152 34.1863 10.952 34.3783 10.824C34.5703 10.696 34.7383 10.584 34.8823 10.488C35.0423 10.376 35.1223 10.32 35.1223 10.32C35.1223 10.256 35.1463 10.224 35.1943 10.224C35.2583 10.208 35.3223 10.2 35.3863 10.2C35.4503 10.2 35.4823 10.192 35.4823 10.176C35.4983 10.16 35.5063 10.12 35.5063 10.056C35.5063 9.97599 35.5943 9.90399 35.7703 9.83999C35.9623 9.77599 36.1783 9.72799 36.4183 9.69599C36.6743 9.64799 36.8823 9.62399 37.0423 9.62399C37.2343 9.62399 37.3863 9.66399 37.4983 9.74399C37.6103 9.82399 37.7543 9.99999 37.9303 10.272C38.1223 10.528 38.2423 10.84 38.2903 11.208C38.3543 11.56 38.3223 11.928 38.1943 12.312C38.1943 12.44 38.1703 12.624 38.1223 12.864C38.0903 13.088 38.0743 13.328 38.0743 13.584L37.9303 14.352H38.3143C38.4423 14.352 38.5623 14.376 38.6743 14.424C38.7863 14.456 38.8423 14.472 38.8423 14.472C38.9063 14.536 38.9703 14.6 39.0343 14.664C39.0983 14.712 39.1623 14.736 39.2263 14.736C39.4183 14.736 39.4903 14.816 39.4423 14.976C39.3943 15.12 39.2743 15.256 39.0823 15.384C38.6983 15.64 38.3463 15.768 38.0263 15.768C37.7223 15.768 37.4423 15.64 37.1863 15.384C36.9303 15.112 36.7703 14.808 36.7063 14.472C36.6423 14.136 36.6743 13.712 36.8023 13.2C36.8663 12.496 36.8983 11.984 36.8983 11.664C36.9143 11.328 36.8343 11.16 36.6583 11.16C36.4983 11.16 36.2183 11.272 35.8183 11.496C35.4183 11.704 34.9703 11.992 34.4743 12.36C33.9783 12.728 33.4903 13.136 33.0103 13.584C32.5303 14.032 32.1303 14.496 31.8103 14.976C31.6183 15.216 31.4343 15.432 31.2583 15.624C31.0823 15.8 30.9063 15.896 30.7303 15.912Z" fill="black"/>
<path d="M41.1671 16.68C41.0071 16.568 40.8871 16.464 40.8071 16.368C40.7271 16.272 40.6951 16.136 40.7111 15.96C40.7431 15.72 40.7911 15.472 40.8551 15.216C40.9191 14.944 40.9991 14.68 41.0951 14.424C41.1431 14.136 41.1991 13.848 41.2631 13.56C41.3431 13.272 41.4711 13 41.6471 12.744C41.8551 12.152 42.0711 11.568 42.2951 10.992C42.5191 10.4 42.7111 9.78399 42.8711 9.14399C43.1111 8.56799 43.3271 8.05599 43.5191 7.60799C43.7271 7.15999 43.9751 6.58399 44.2631 5.87999C44.4231 5.51199 44.5591 5.10399 44.6711 4.65599C44.7991 4.19199 44.9911 3.78399 45.2471 3.43199C45.3591 3.28799 45.4391 3.16799 45.4871 3.07199C45.5511 2.95999 45.6151 2.85599 45.6791 2.75999C45.7111 2.66399 45.8151 2.63199 45.9911 2.66399C46.1831 2.69599 46.3191 2.76799 46.3991 2.87999C46.4791 2.86399 46.5751 2.96799 46.6871 3.19199C46.7991 3.41599 46.8391 3.59199 46.8071 3.71999C46.8071 3.89599 46.7431 4.08799 46.6151 4.29599C46.5511 4.35999 46.4871 4.45599 46.4231 4.58399C46.3591 4.69599 46.2631 4.84799 46.1351 5.03999C46.0711 5.24799 46.0071 5.45599 45.9431 5.66399C45.8791 5.87199 45.8071 6.06399 45.7271 6.23999C45.6471 6.41599 45.5591 6.59199 45.4631 6.76799C45.3671 6.94399 45.3031 7.08799 45.2711 7.19999C45.1271 7.56799 44.9671 7.92799 44.7911 8.27999C44.6311 8.61599 44.4871 8.97599 44.3591 9.35999C44.2311 9.72799 44.0951 10.12 43.9511 10.536C43.8231 10.936 43.6471 11.32 43.4231 11.688C43.3111 11.848 43.2231 12.064 43.1591 12.336C43.0951 12.608 43.0311 12.872 42.9671 13.128C42.8551 13.416 42.7511 13.68 42.6551 13.92C42.5751 14.16 42.5351 14.312 42.5351 14.376C42.4231 14.728 42.3351 15.08 42.2711 15.432C42.2071 15.768 42.1031 16.064 41.9591 16.32C41.9431 16.56 41.8711 16.72 41.7431 16.8C41.6311 16.88 41.4391 16.84 41.1671 16.68ZM46.9031 17.064C46.6471 17.032 46.4551 16.984 46.3271 16.92C46.1991 16.84 45.9591 16.672 45.6071 16.416C45.4151 16.224 45.1511 15.928 44.8151 15.528C44.4791 15.128 44.1431 14.704 43.8071 14.256C43.4711 13.792 43.1911 13.4 42.9671 13.08L43.9511 11.76C44.1591 12.016 44.3271 12.256 44.4551 12.48C44.5831 12.704 44.6871 12.856 44.7671 12.936C45.1351 13.48 45.4231 13.92 45.6311 14.256C45.8551 14.592 46.0551 14.864 46.2311 15.072C46.4071 15.28 46.5911 15.464 46.7831 15.624C46.9911 15.784 47.2471 15.952 47.5511 16.128C47.5991 16.16 47.6471 16.208 47.6951 16.272C47.7431 16.336 47.7591 16.432 47.7431 16.56C47.6791 16.736 47.6071 16.848 47.5271 16.896C47.4631 16.928 47.2551 16.984 46.9031 17.064ZM42.8951 12.816C42.7991 12.544 42.8311 12.272 42.9911 12C43.1671 11.712 43.3591 11.512 43.5671 11.4C43.6311 11.288 43.6951 11.216 43.7591 11.184C43.8391 11.136 43.8871 11.08 43.9031 11.016C43.9351 10.952 44.0151 10.864 44.1431 10.752C44.2871 10.64 44.4151 10.536 44.5271 10.44C44.7831 10.28 45.0711 10.088 45.3911 9.86399C45.7271 9.62399 46.0471 9.38399 46.3511 9.14399C46.6551 8.90399 46.9111 8.69599 47.1191 8.51999C47.3431 8.34399 47.4791 8.23199 47.5271 8.18399C47.5751 8.11999 47.6391 8.07999 47.7191 8.06399C47.8151 8.03199 47.9351 8.04799 48.0791 8.11199C48.2711 8.15999 48.3991 8.23999 48.4631 8.35199C48.5271 8.44799 48.5591 8.63999 48.5591 8.92799C48.6071 9.10399 48.5351 9.29599 48.3431 9.50399C48.1671 9.69599 47.8951 9.91199 47.5271 10.152C47.3991 10.232 47.2231 10.352 46.9991 10.512C46.7911 10.672 46.6071 10.824 46.4471 10.968C46.3351 11.032 46.1671 11.144 45.9431 11.304C45.7351 11.448 45.5511 11.592 45.3911 11.736C45.2631 11.816 45.0951 11.96 44.8871 12.168C44.6791 12.36 44.4711 12.504 44.2631 12.6C43.7511 13.08 43.4151 13.336 43.2551 13.368C43.0951 13.4 42.9751 13.216 42.8951 12.816Z" fill="black"/>
<path d="M55.5007 17.16C55.3407 17 55.1807 16.784 55.0207 16.512C54.8607 16.224 54.7327 15.896 54.6367 15.528C54.6047 15.4 54.5887 15.224 54.5887 15C54.6047 14.776 54.6047 14.616 54.5887 14.52C54.5407 14.632 54.4607 14.752 54.3487 14.88C54.2527 14.992 54.1567 15.088 54.0607 15.168C53.9967 15.232 53.8527 15.36 53.6287 15.552C53.4047 15.728 53.1807 15.872 52.9567 15.984C52.4287 16.32 51.9887 16.504 51.6367 16.536C51.3007 16.568 50.9807 16.392 50.6767 16.008C50.4207 15.8 50.2367 15.568 50.1247 15.312C50.0287 15.056 50.0287 14.704 50.1247 14.256C50.1567 13.696 50.2367 13.152 50.3647 12.624C50.4927 12.08 50.7567 11.36 51.1567 10.464C51.4927 9.80799 51.7487 9.32799 51.9247 9.02399C52.1007 8.70399 52.2127 8.51199 52.2607 8.44799C52.5007 8.36799 52.7007 8.37599 52.8607 8.47199C53.0207 8.55199 53.1167 8.70399 53.1487 8.92799C53.2447 9.08799 53.2287 9.35999 53.1007 9.74399C52.9887 10.128 52.7887 10.6 52.5007 11.16C52.2767 11.704 52.0687 12.248 51.8767 12.792C51.7007 13.336 51.5967 13.8 51.5647 14.184C51.5327 14.568 51.6287 14.8 51.8527 14.88C51.9967 14.96 52.2447 14.936 52.5967 14.808C52.9647 14.68 53.3727 14.36 53.8207 13.848C54.2847 13.336 54.7327 12.56 55.1647 11.52C55.2927 11.2 55.3887 10.92 55.4527 10.68C55.5167 10.424 55.5567 10.144 55.5727 9.83999C55.5407 9.64799 55.5487 9.47999 55.5967 9.33599C55.6607 9.17599 55.7887 9.03999 55.9807 8.92799C56.0447 8.84799 56.1327 8.77599 56.2447 8.71199C56.3567 8.63199 56.4287 8.63199 56.4607 8.71199L56.8447 8.68799C56.9087 8.67199 56.9487 8.71199 56.9647 8.80799C56.9967 8.88799 57.0527 8.95999 57.1327 9.02399C57.3087 9.16799 57.3567 9.47999 57.2767 9.95999C57.1967 10.44 56.9727 11.112 56.6047 11.976C56.3007 12.632 56.0927 13.128 55.9807 13.464C55.8847 13.8 55.8287 14.128 55.8127 14.448C55.8127 14.736 55.8687 15.008 55.9807 15.264C56.0927 15.52 56.2687 15.752 56.5087 15.96C56.6847 16.072 56.7807 16.2 56.7967 16.344C56.8287 16.488 56.8367 16.656 56.8207 16.848C56.7887 16.992 56.6927 17.112 56.5327 17.208C56.3887 17.288 56.2207 17.328 56.0287 17.328C55.8367 17.328 55.6607 17.272 55.5007 17.16Z" fill="black"/>
<path d="M59.8475 16.656C59.7675 16.816 59.6475 16.864 59.4875 16.8C59.3435 16.736 59.2235 16.672 59.1275 16.608C59.0155 16.608 58.9195 16.576 58.8395 16.512C58.7595 16.448 58.7035 16.352 58.6715 16.224C58.6395 16.128 58.6315 16.016 58.6475 15.888C58.6635 15.744 58.6955 15.584 58.7435 15.408C58.8075 15.216 58.8715 15.008 58.9355 14.784C59.0635 14.256 59.1515 13.872 59.1995 13.632C59.2475 13.392 59.2955 13.184 59.3435 13.008C59.3915 12.832 59.4555 12.576 59.5355 12.24C59.6635 11.92 59.7675 11.608 59.8475 11.304C59.9275 11 60.0475 10.696 60.2075 10.392C60.3195 9.97599 60.4555 9.58399 60.6155 9.21599C60.7915 8.83199 60.9595 8.51199 61.1195 8.25599C61.1515 8.20799 61.2075 8.14399 61.2875 8.06399C61.3835 7.98399 61.4635 7.94399 61.5275 7.94399C61.6555 7.81599 61.7675 7.76799 61.8635 7.79999C61.9755 7.81599 62.1115 7.88799 62.2715 8.01599C62.4635 8.22399 62.5355 8.46399 62.4875 8.73599C62.4555 9.00799 62.2635 9.40799 61.9115 9.93599C61.7195 10.432 61.5435 10.864 61.3835 11.232C61.2235 11.584 61.1115 11.92 61.0475 12.24C61.2235 11.984 61.4155 11.752 61.6235 11.544C61.8475 11.32 62.0315 11.136 62.1755 10.992C62.5275 10.64 62.8155 10.384 63.0395 10.224C63.2795 10.064 63.5595 9.87999 63.8795 9.67199C64.0715 9.54399 64.2555 9.43199 64.4315 9.33599C64.6075 9.22399 64.7995 9.14399 65.0075 9.09599C65.2315 9.04799 65.4715 9.04799 65.7275 9.09599C65.8875 9.07999 66.0155 9.12799 66.1115 9.23999C66.2235 9.35199 66.3115 9.50399 66.3755 9.69599C66.4395 9.88799 66.4795 10.112 66.4955 10.368C66.1275 10.288 65.7995 10.304 65.5115 10.416C65.2235 10.512 64.9755 10.632 64.7675 10.776C64.5755 10.92 64.4235 11.032 64.3115 11.112C64.0715 11.272 63.7675 11.488 63.3995 11.76C63.0315 12.016 62.6635 12.328 62.2955 12.696C62.0075 13.016 61.7595 13.288 61.5515 13.512C61.3595 13.736 61.1995 13.936 61.0715 14.112C60.9595 14.288 60.8715 14.472 60.8075 14.664C60.6475 15.032 60.4795 15.432 60.3035 15.864C60.1275 16.296 59.9755 16.56 59.8475 16.656Z" fill="black"/>
<path d="M69.336 16.512C69.208 16.544 69.04 16.56 68.832 16.56C68.624 16.544 68.44 16.52 68.28 16.488C68.136 16.44 68.064 16.392 68.064 16.344C68.064 16.264 68.024 16.224 67.944 16.224C67.944 16.224 67.904 16.192 67.824 16.128C67.76 16.064 67.656 16 67.512 15.936C67.368 15.712 67.296 15.472 67.296 15.216C67.296 14.944 67.368 14.52 67.512 13.944C67.56 13.544 67.712 13.08 67.968 12.552C68.24 12.008 68.568 11.456 68.952 10.896C69.336 10.336 69.736 9.83199 70.152 9.38399C70.584 8.93599 70.976 8.60799 71.328 8.39999C71.552 8.17599 71.824 8.05599 72.144 8.03999C72.464 8.02399 72.768 8.09599 73.056 8.25599C73.216 8.33599 73.376 8.46399 73.536 8.63999C73.696 8.81599 73.848 9.00799 73.992 9.21599C74.136 9.42399 74.256 9.63199 74.352 9.83999C74.4 10.016 74.424 10.176 74.424 10.32C74.44 10.448 74.44 10.608 74.424 10.8C74.424 10.992 74.4 11.28 74.352 11.664C74.272 11.952 74.2 12.304 74.136 12.72C74.088 13.136 74.064 13.496 74.064 13.8C74.032 14.104 74.064 14.32 74.16 14.448C74.272 14.576 74.432 14.584 74.64 14.472C74.832 14.376 75.016 14.336 75.192 14.352C75.368 14.352 75.504 14.4 75.6 14.496C75.712 14.592 75.768 14.736 75.768 14.928C75.768 15.12 75.672 15.32 75.48 15.528C75.304 15.72 75.08 15.888 74.808 16.032C74.552 16.16 74.304 16.224 74.064 16.224C73.888 16.224 73.72 16.12 73.56 15.912C73.4 15.688 73.256 15.424 73.128 15.12C73.016 14.8 72.912 14.496 72.816 14.208L72.672 13.656L71.64 14.64C71.432 14.864 71.224 15.072 71.016 15.264C70.824 15.44 70.704 15.568 70.656 15.648C70.576 15.792 70.424 15.936 70.2 16.08C69.992 16.224 69.704 16.368 69.336 16.512ZM69.408 15.096C69.68 14.936 69.992 14.704 70.344 14.4C70.696 14.08 71.04 13.736 71.376 13.368C71.712 12.984 71.992 12.632 72.216 12.312C72.488 11.944 72.696 11.6 72.84 11.28C72.984 10.96 73.088 10.656 73.152 10.368C73.088 10.192 72.984 10.008 72.84 9.81599C72.696 9.60799 72.568 9.49599 72.456 9.47999C72.104 9.47999 71.728 9.70399 71.328 10.152C70.944 10.584 70.568 11.056 70.2 11.568C70.136 11.648 70.048 11.776 69.936 11.952C69.824 12.128 69.712 12.296 69.6 12.456C69.504 12.6 69.44 12.696 69.408 12.744C69.36 12.808 69.264 12.992 69.12 13.296C68.992 13.584 68.864 13.88 68.736 14.184C68.608 14.472 68.544 14.664 68.544 14.76C68.544 14.856 68.552 14.96 68.568 15.072C68.6 15.184 68.68 15.256 68.808 15.288C68.936 15.32 69.136 15.256 69.408 15.096Z" fill="black"/>
<path d="M78.8248 17.04C78.6488 17.008 78.4648 16.92 78.2728 16.776C78.0968 16.616 77.9368 16.44 77.7928 16.248C77.6648 16.04 77.5768 15.856 77.5288 15.696C77.5288 15.664 77.5048 15.624 77.4568 15.576C77.4248 15.528 77.4088 15.504 77.4088 15.504C77.3448 15.456 77.3048 15.248 77.2888 14.88C77.2888 14.496 77.3128 14.072 77.3608 13.608C77.4088 13.144 77.4648 12.776 77.5288 12.504C77.6088 12.248 77.7288 11.904 77.8888 11.472C78.0488 11.024 78.1848 10.624 78.2968 10.272L78.9448 8.87999L77.9848 8.61599C77.8728 8.58399 77.7768 8.51999 77.6968 8.42399C77.6328 8.32799 77.6008 8.24799 77.6008 8.18399C77.6008 8.05599 77.6728 7.90399 77.8168 7.72799C77.9608 7.53599 78.0648 7.43999 78.1288 7.43999C78.2088 7.45599 78.3528 7.46399 78.5608 7.46399C78.7848 7.46399 79.0008 7.45599 79.2088 7.43999C79.4168 7.42399 79.5448 7.40799 79.5928 7.39199C79.6568 7.35999 79.7208 7.31999 79.7848 7.27199C79.8488 7.20799 79.8968 7.11999 79.9288 7.00799C80.0088 6.83199 80.0808 6.67199 80.1448 6.52799C80.2088 6.36799 80.2968 6.19199 80.4088 5.99999C80.5208 5.79199 80.6088 5.61599 80.6728 5.47199C80.7528 5.32799 80.8728 5.12799 81.0328 4.87199C81.1128 4.75999 81.2008 4.62399 81.2968 4.46399C81.3928 4.30399 81.5128 4.16799 81.6568 4.05599C81.8008 3.92799 81.9448 3.87199 82.0888 3.88799C82.2488 3.88799 82.4488 3.99199 82.6888 4.19999C82.8168 4.35999 82.8888 4.47999 82.9048 4.55999C82.9208 4.63999 82.8568 4.79199 82.7128 5.01599C82.5848 5.28799 82.4328 5.55999 82.2568 5.83199C82.0968 6.10399 81.9448 6.37599 81.8008 6.64799C81.5448 6.99999 81.4968 7.19999 81.6568 7.24799C81.8168 7.29599 82.2648 7.26399 83.0008 7.15199C83.4648 7.07199 83.8008 7.09599 84.0088 7.22399C84.2168 7.33599 84.3368 7.52799 84.3688 7.79999C84.4168 8.18399 84.3768 8.41599 84.2488 8.49599C84.1208 8.57599 83.7528 8.61599 83.1448 8.61599C82.7608 8.67999 82.4328 8.71999 82.1608 8.73599C81.8888 8.73599 81.6888 8.73599 81.5608 8.73599C81.3528 8.75199 81.2168 8.75999 81.1528 8.75999C81.0888 8.75999 80.9928 8.77599 80.8648 8.80799C80.7368 8.83999 80.6408 8.89599 80.5768 8.97599C80.5288 9.03999 80.4728 9.13599 80.4088 9.26399C80.3448 9.32799 80.2488 9.49599 80.1208 9.76799C79.9928 10.04 79.8328 10.336 79.6408 10.656C79.4168 11.328 79.2248 12 79.0648 12.672C78.9048 13.328 78.7768 13.968 78.6808 14.592C78.6168 14.992 78.6248 15.272 78.7048 15.432C78.7848 15.576 78.9928 15.664 79.3288 15.696C79.5048 15.712 79.7848 15.712 80.1688 15.696C80.5688 15.664 80.8808 15.616 81.1048 15.552C81.2808 15.472 81.4648 15.392 81.6568 15.312C81.8488 15.216 82.0248 15.12 82.1848 15.024C82.3288 14.944 82.4728 14.864 82.6168 14.784C82.7608 14.688 82.8328 14.64 82.8328 14.64C82.9128 14.512 83.0008 14.472 83.0968 14.52C83.1928 14.568 83.2728 14.688 83.3368 14.88C83.3368 15.072 83.2968 15.272 83.2168 15.48C83.1368 15.688 82.8408 15.936 82.3288 16.224C81.6088 16.672 80.9448 16.944 80.3368 17.04C79.7448 17.12 79.2408 17.12 78.8248 17.04Z" fill="black"/>
</svg>
