<svg width="193" height="17" viewBox="0 0 193 17" fill="none" xmlns="http://www.w3.org/2000/svg">
<path d="M165.552 4.39334C171.41 -1.46441 180.908 -1.46449 186.765 4.39334L191.28 8.90799C192.451 10.0795 192.451 11.9786 191.28 13.1502C190.108 14.3217 188.209 14.3217 187.038 13.1502L182.522 8.63553C179.008 5.12121 173.309 5.12105 169.795 8.63553L166.765 11.6648C160.908 17.5227 151.41 17.5227 145.552 11.6648L142.522 8.63553C139.008 5.12121 133.309 5.12105 129.795 8.63553L126.765 11.6648C120.908 17.5227 111.41 17.5227 105.552 11.6648L102.522 8.63553C99.0075 5.12122 93.3093 5.12105 89.7947 8.63553L86.7654 11.6648C80.9075 17.5227 71.4104 17.5227 65.5525 11.6648L62.5222 8.63553C59.0075 5.12121 53.3093 5.12105 49.7947 8.63553L46.7654 11.6648C40.9075 17.5227 31.4103 17.5227 25.5525 11.6648L22.5222 8.63553C19.0075 5.12122 13.3093 5.12105 9.79467 8.63553L5.12084 13.3094C3.94928 14.4809 2.05022 14.4809 0.878655 13.3094C-0.292901 12.1378 -0.292868 10.2387 0.878655 9.06717L5.55248 4.39334C11.4104 -1.46441 20.9076 -1.46448 26.7654 4.39334L29.7947 7.42264C33.3093 10.9373 39.0075 10.9371 42.5222 7.42264L45.5525 4.39334C51.4104 -1.46441 60.9075 -1.46448 66.7654 4.39334L69.7947 7.42264L70.1306 7.74197C73.6635 10.9339 79.1173 10.8273 82.5222 7.42264L85.5525 4.39334C91.4104 -1.46441 100.908 -1.46448 106.765 4.39334L109.795 7.42264L110.131 7.74197C113.664 10.9339 119.117 10.8273 122.522 7.42264L125.552 4.39334C131.41 -1.46441 140.908 -1.46449 146.765 4.39334L149.795 7.42264C153.309 10.9373 159.007 10.9371 162.522 7.42264L165.552 4.39334Z" fill="black"/>
</svg>
