<svg width="32" height="32" viewBox="0 0 32 32" fill="none" xmlns="http://www.w3.org/2000/svg">
<path d="M16.0001 29.3334C8.63628 29.3334 2.66675 23.3638 2.66675 16.0001C2.66675 8.63628 8.63628 2.66675 16.0001 2.66675C23.3638 2.66675 29.3334 8.63628 29.3334 16.0001C29.3253 23.3605 23.3605 29.3253 16.0001 29.3334ZM9.49341 24.7267L9.48675 24.7401C12.5308 27.0205 16.5458 27.5429 20.0721 26.1174C19.5666 23.3991 18.8174 20.7319 17.8334 18.1481C15.5733 18.9361 13.507 20.1965 11.7721 21.8454C10.9171 22.655 10.1768 23.5778 9.57208 24.5881L9.56275 24.6027V24.5894L9.53875 24.6361L9.52275 24.6627L9.51341 24.6801L9.49075 24.7281L9.49341 24.7267ZM22.3721 17.3934C21.7157 17.3943 21.0599 17.4389 20.4094 17.5267C21.259 19.9007 21.9275 22.3357 22.4094 24.8107C24.6753 23.1774 26.2154 20.7251 26.7027 17.9747C25.2921 17.5855 23.8354 17.3886 22.3721 17.3894V17.3934ZM5.08941 15.9401V16.0147C5.09184 18.5835 6.00077 21.069 7.65608 23.0334C9.80045 19.7207 12.9724 17.2031 16.6854 15.8667L16.8441 15.8214C16.6081 15.3001 16.3867 14.8347 16.1654 14.4001C12.608 15.3975 8.93328 15.9154 5.23875 15.9401H5.08941ZM21.9547 15.1321C23.6091 15.1382 25.2599 15.289 26.8881 15.5827C26.8033 13.3273 26.0143 11.155 24.6321 9.37075C23.019 11.1747 21.0114 12.5819 18.7654 13.4827L18.8041 13.4667L18.7627 13.4841C19.0014 13.9814 19.2107 14.4467 19.3854 14.8614C19.4267 14.9601 19.4614 15.0454 19.4934 15.1281L19.5481 15.2614C20.3471 15.1727 21.1507 15.1295 21.9547 15.1321ZM11.1694 6.23608C8.26983 7.66724 6.15499 10.3115 5.39608 13.4547C8.50325 13.4067 11.5955 13.0141 14.6161 12.2841H14.6334H14.6534L14.6667 12.2667L14.7387 12.2494H14.7467L14.8001 12.2387H14.8121H14.8214L14.8494 12.2307L14.9027 12.2174L14.9334 12.2041L14.9627 12.1961H14.9761H14.9894C13.2121 9.06675 11.3734 6.51608 11.1694 6.23608ZM16.0001 5.11871C15.2702 5.11691 14.5418 5.18612 13.8254 5.32541C15.2222 7.26085 16.5039 9.27679 17.6641 11.3627C19.7415 10.6228 21.5945 9.36217 23.0454 7.70141C21.0757 6.03555 18.5798 5.12063 16.0001 5.11871Z" fill="black"/>
</svg>
