<svg width="32" height="32" fill="none" xmlns="http://www.w3.org/2000/svg"><path d="M12.825 16.262c.307 0 .617.048.93.146.321.092.563.186.726.284l.236.138c.117.072.209.13.274.176.17.137.255.294.255.47 0 .17-.069.35-.206.54-.254.352-.483.529-.685.529-.118 0-.285-.072-.5-.216-.275-.222-.64-.333-1.098-.333-.425 0-.843.146-1.255.44a1.648 1.648 0 0 0-.49.608 1.97 1.97 0 0 0-.196.892c0 .327.066.621.197.882.13.261.296.467.499.617.398.288.814.432 1.245.432.202 0 .392-.027.568-.079.183-.052.313-.104.392-.156l.177-.128c.222-.13.379-.195.47-.195.203 0 .421.183.656.548.144.229.216.412.216.55a.466.466 0 0 1-.137.342 1.427 1.427 0 0 1-.304.245c-.117.072-.232.14-.343.205-.104.066-.323.15-.656.255a3.239 3.239 0 0 1-.97.157c-.308 0-.621-.04-.941-.118a4.375 4.375 0 0 1-.98-.411 4.304 4.304 0 0 1-.902-.706 3.385 3.385 0 0 1-.667-1.067 3.895 3.895 0 0 1-.254-1.421c0-.51.084-.97.254-1.382.17-.418.386-.762.647-1.03.268-.274.572-.503.912-.686.64-.353 1.283-.528 1.93-.528zM21.858 16.271c.17 0 .363.055.578.166.386.19.578.399.579.627 0 .105-.05.262-.148.471l-2.705 5.488a.863.863 0 0 1-.333.353.874.874 0 0 1-.45.128h-.099a.943.943 0 0 1-.47-.128.883.883 0 0 1-.324-.353l-2.704-5.488c-.098-.209-.147-.366-.147-.47 0-.229.193-.438.578-.628.215-.11.38-.166.49-.166.118 0 .206.013.265.04a.457.457 0 0 1 .167.136c.058.079.11.167.156.265.052.091.18.363.383.813l.646 1.421c.235.503.454.98.657 1.431.208.444.326.693.352.745l1.961-4.292c.052-.124.098-.223.137-.295.117-.176.262-.264.431-.264z" fill="#000"/><path fill-rule="evenodd" clip-rule="evenodd" d="M17.172 3a3 3 0 0 1 2.121.879l6.828 6.828A3 3 0 0 1 27 12.828V26a3 3 0 0 1-3 3H8a3 3 0 0 1-3-3V6a3 3 0 0 1 3-3h9.172zM8 5a1 1 0 0 0-1 1v20a1 1 0 0 0 1 1h16a1 1 0 0 0 1-1V14a1 1 0 0 0-1-1h-4a3 3 0 0 1-3-3V6a1 1 0 0 0-.898-.995L16 5H8zm11 5a1 1 0 0 0 1 1h3.586L19 6.414V10z" fill="#000"/></svg>