<svg width="32" height="32" viewBox="0 0 32 32" fill="none" xmlns="http://www.w3.org/2000/svg">
<path d="M26.0808 4H6.05053C4.95649 4 4 4.78771 4 5.86924V25.9432C4 27.0309 4.95649 28 6.05053 28H26.0745C27.1748 28 28 27.0248 28 25.9432V5.86924C28.0063 4.78771 27.1748 4 26.0808 4ZM11.4394 24.0052H8.00104V13.3149H11.4394V24.0052ZM9.83903 11.6895H9.81401C8.71373 11.6895 8.00104 10.8705 8.00104 9.84527C8.00104 8.80125 8.73248 8.00104 9.85777 8.00104C10.9831 8.00104 11.6707 8.795 11.6958 9.84527C11.6958 10.8705 10.9831 11.6895 9.83903 11.6895ZM24.0052 24.0052H20.5668V18.16C20.5668 16.7596 20.0667 15.8031 18.8227 15.8031C17.8724 15.8031 17.3097 16.4469 17.0596 17.0721C16.9659 17.2972 16.9409 17.6036 16.9409 17.9161V24.0052H13.5025V13.3149H16.9409V14.8028C17.4411 14.0901 18.2224 13.0649 20.0417 13.0649C22.2985 13.0649 24.0052 14.5528 24.0052 17.7599V24.0052Z" fill="black"/>
</svg>
