<svg width="32" height="32" fill="none" xmlns="http://www.w3.org/2000/svg"><path fill-rule="evenodd" clip-rule="evenodd" d="M19.097 6.4a2.651 2.651 0 0 1 3.734-.327l.843.707A2.65 2.65 0 0 1 24 10.514L12.667 24.02c-.318.379-.722.679-1.176.877l-3.026 1.315c-1.171.509-2.421-.538-2.126-1.78l.764-3.212c.115-.484.343-.935.663-1.317L19.096 6.4zm2.449 1.206a.652.652 0 0 0-.917.08L9.298 21.19c-.12.142-.206.312-.25.494l-.555 2.336 2.2-.956c.17-.074.322-.186.442-.329L22.468 9.23a.65.65 0 0 0-.08-.916l-.842-.707z" fill="#000"/><path d="M23.991 12.264a1.001 1.001 0 0 1 1.532 1.285l-5.656 6.741a1 1 0 0 1-1.532-1.285l5.656-6.741z" fill="#000"/></svg>